# xmcd CD database file
#
# Track frame offsets:
#	150
#	19518
#	39000
#	55984
#	81771
#	102705
#	124009
#	140832
#	162058
#	174205
#	194669
#	219660
#
# Disc length: 3203 seconds
#
# Revision: 0
# Processed by: cddbd v1.5PL3 Copyright (c) Steve Scherf et al.
# Submitted via: CDex 1.51
#
DISCID=a10c810c
DTITLE=Cousteau - Sirena
DYEAR=2002
DGENRE=Jazz
TTITLE0=Nothing So Bad
TTITLE1=(Damns These) Hungry Times
TTITLE2=Talking To Myself
TTITLE3=Peculiarly You
TTITLE4=Salome
TTITLE5=Please Don't Cry
TTITLE6=No Medication
TTITLE7=After The Fall
TTITLE8=Last Secret Of The Sea
TTITLE9=Heavy Weather
TTITLE10=She Bruise Easy
TTITLE11=Have You Seen Her?
EXTD=YEAR: 2002
EXTT0=
EXTT1=
EXTT2=
EXTT3=
EXTT4=
EXTT5=
EXTT6=
EXTT7=
EXTT8=
EXTT9=
EXTT10=
EXTT11=
PLAYORDER=
